<svg width="38" height="46" viewBox="0 0 38 46" fill="none" xmlns="http://www.w3.org/2000/svg">
  <path
    d="M19 0.5C12.567 0.5 7.33331 5.54675 7.33331 11.75V18.5H4.99998C2.42631 18.5 0.333313 20.5182 0.333313 23V41C0.333313 43.4818 2.42631 45.5 4.99998 45.5H33C35.5736 45.5 37.6666 43.4818 37.6666 41V23C37.6666 20.5182 35.5736 18.5 33 18.5H30.6666V11.75C30.6666 5.54675 25.433 0.5 19 0.5ZM33 23L33.0046 41H4.99998V23H33ZM12 18.5V11.75C12 8.0285 15.1406 5 19 5C22.8593 5 26 8.0285 26 11.75V18.5H12Z"
    fill="#666666" />
</svg>