<svg width="39" height="43" viewBox="0 0 39 43" fill="none" xmlns="http://www.w3.org/2000/svg">
  <path
    d="M37.4341 34.5223C36.4577 32.2096 35.0409 30.1089 33.2624 28.3372C31.4894 26.5604 29.389 25.1438 27.0774 24.1655C27.0567 24.1552 27.0359 24.15 27.0152 24.1396C30.2398 21.8105 32.3359 18.0167 32.3359 13.7363C32.3359 6.64551 26.5908 0.900391 19.5 0.900391C12.4092 0.900391 6.66407 6.64551 6.66407 13.7363C6.66407 18.0167 8.76026 21.8105 11.9848 24.1448C11.9641 24.1552 11.9434 24.1604 11.9227 24.1707C9.60391 25.1489 7.52325 26.5516 5.73761 28.3424C3.96081 30.1154 2.54417 32.2158 1.56593 34.5274C0.604897 36.7906 0.0865935 39.2169 0.0390699 41.6752C0.0376884 41.7304 0.0473776 41.7854 0.0675668 41.8368C0.087756 41.8883 0.118037 41.9351 0.156624 41.9747C0.195212 42.0143 0.241326 42.0457 0.292249 42.0671C0.343172 42.0886 0.397875 42.0996 0.453132 42.0996H3.5586C3.78634 42.0996 3.96749 41.9185 3.97266 41.6959C4.07618 37.7002 5.68067 33.9581 8.517 31.1218C11.4517 28.1871 15.349 26.5723 19.5 26.5723C23.651 26.5723 27.5483 28.1871 30.483 31.1218C33.3193 33.9581 34.9238 37.7002 35.0274 41.6959C35.0325 41.9236 35.2137 42.0996 35.4414 42.0996H38.5469C38.6021 42.0996 38.6568 42.0886 38.7078 42.0671C38.7587 42.0457 38.8048 42.0143 38.8434 41.9747C38.882 41.9351 38.9123 41.8883 38.9324 41.8368C38.9526 41.7854 38.9623 41.7304 38.9609 41.6752C38.9092 39.2012 38.3968 36.7944 37.4341 34.5223ZM19.5 22.6387C17.1243 22.6387 14.8884 21.7122 13.2063 20.0301C11.5241 18.3479 10.5977 16.112 10.5977 13.7363C10.5977 11.3606 11.5241 9.12471 13.2063 7.44258C14.8884 5.76045 17.1243 4.83398 19.5 4.83398C21.8757 4.83398 24.1116 5.76045 25.7938 7.44258C27.4759 9.12471 28.4024 11.3606 28.4024 13.7363C28.4024 16.112 27.4759 18.3479 25.7938 20.0301C24.1116 21.7122 21.8757 22.6387 19.5 22.6387Z"
    fill="#666666" />
</svg>