<svg width="2094" height="1440" viewBox="0 0 2094 1440" fill="none" xmlns="http://www.w3.org/2000/svg">
  <path
    d="M2040.64 0L2048.64 14.5C2059.49 31.65 2067.14 68.5 2067.29 103C2067.14 137.15 2046.14 171.5 2032.64 205.5C2019.13 240 2014.13 274.5 2032.64 308.5C2051.14 342.85 2094.15 377 2094 411.5C2094.15 445.7 2051.14 480 2027.29 514.5C2003.13 548.55 1998.13 583 2003.28 617C2008.63 651.45 2024.64 685.5 2032.64 703L2040.64 720H1323V702.85C1323 685.7 1323 651.5 1323 617C1323 582.85 1323 548.5 1323 514.5C1323 480 1323 445.5 1323 411.5C1323 377.15 1323 343 1323 308.5C1323 274.3 1323 240 1323 205.5C1323 171.45 1323 137 1323 103C1323 68.55 1323 34.5 1323 17V0H2040.64Z"
    fill="url(#paint0_linear)" />
  <path
    d="M2040.64 720L2048.64 734.5C2059.49 751.65 2067.14 788.5 2067.29 823C2067.14 857.15 2046.14 891.5 2032.64 925.5C2019.13 960 2014.13 994.5 2032.64 1028.5C2051.14 1062.85 2094.15 1097 2094 1131.5C2094.15 1165.7 2051.14 1200 2027.29 1234.5C2003.13 1268.55 1998.13 1303 2003.28 1337C2008.63 1371.45 2024.64 1405.5 2032.64 1423L2040.64 1440H1323V1422.85C1323 1405.7 1323 1371.5 1323 1337C1323 1302.85 1323 1268.5 1323 1234.5C1323 1200 1323 1165.5 1323 1131.5C1323 1097.15 1323 1063 1323 1028.5C1323 994.3 1323 960 1323 925.5C1323 891.45 1323 857 1323 823C1323 788.55 1323 754.5 1323 737V720H2040.64Z"
    fill="url(#paint1_linear)" />
  <path d="M0 0H1323V1440H0V0Z" fill="url(#paint2_linear)" />
  <defs>
    <linearGradient id="paint0_linear" x1="1047" y1="0" x2="1047" y2="1440" gradientUnits="userSpaceOnUse">
      <stop stop-color="#01CB93" stop-opacity="0.25" />
      <stop offset="1" stop-color="#01BFCB" stop-opacity="0.25" />
    </linearGradient>
    <linearGradient id="paint1_linear" x1="1047" y1="0" x2="1047" y2="1440" gradientUnits="userSpaceOnUse">
      <stop stop-color="#01CB93" stop-opacity="0.25" />
      <stop offset="1" stop-color="#01BFCB" stop-opacity="0.25" />
    </linearGradient>
    <linearGradient id="paint2_linear" x1="1047" y1="0" x2="1047" y2="1440" gradientUnits="userSpaceOnUse">
      <stop stop-color="#01CB93" stop-opacity="0.25" />
      <stop offset="1" stop-color="#01BFCB" stop-opacity="0.25" />
    </linearGradient>
  </defs>
</svg>