<svg width="439" height="88" viewBox="0 0 439 88" fill="none" xmlns="http://www.w3.org/2000/svg">
  <path
    d="M31.7178 68.8057C20.9756 68.8057 13.0443 66.0127 7.92383 60.4268C2.83919 54.8408 0.296875 46.1576 0.296875 34.377C0.296875 11.7109 10.9316 0.37793 32.2012 0.37793C35.1016 0.37793 38.1452 0.664388 41.332 1.2373C44.5547 1.81022 47.2402 2.61589 49.3887 3.6543C51.5371 4.6569 52.6113 5.78483 52.6113 7.03809C52.6113 7.93327 52.2533 9.11491 51.5371 10.583C50.821 12.0153 49.9795 13.2865 49.0127 14.3965C48.0459 15.5065 47.1865 16.0615 46.4346 16.0615C46.2197 16.0615 45.7005 15.8825 44.877 15.5244C43.0866 14.8083 41.2067 14.2174 39.2373 13.752C37.2679 13.2507 34.833 13 31.9326 13C26.3109 13 22.1393 14.7904 19.418 18.3711C16.7324 21.916 15.3896 27.2871 15.3896 34.4844C15.3896 41.6816 16.7503 47.1064 19.4717 50.7588C22.193 54.4111 26.2751 56.2373 31.7178 56.2373C34.4749 56.2373 36.9635 56.0046 39.1836 55.5391V43.4541H30.751C29.7484 43.4541 29.0143 43.0781 28.5488 42.3262C28.1191 41.5742 27.9043 40.3568 27.9043 38.6738V35.6123C27.9043 33.9652 28.1191 32.7656 28.5488 32.0137C29.0143 31.2617 29.7484 30.8857 30.751 30.8857H50.1406C51.5013 30.8857 52.486 31.1901 53.0947 31.7988C53.7035 32.3717 54.0078 33.3206 54.0078 34.6455V61.2324C54.0078 64.097 51.6087 66.0843 46.8105 67.1943C42.0124 68.2686 36.9814 68.8057 31.7178 68.8057ZM71.8936 68.1611C68.098 68.1611 66.2002 67.1585 66.2002 65.1533V34.8604C66.2002 30.277 65.8958 26.4635 65.2871 23.4199C65.1081 22.4531 65.0186 21.7728 65.0186 21.3789C65.0186 20.6628 65.681 20.0898 67.0059 19.6602C68.3665 19.1947 69.8883 18.8545 71.5713 18.6396C73.29 18.4248 74.6686 18.3174 75.707 18.3174C76.8171 18.3174 77.5869 18.7292 78.0166 19.5527C78.4821 20.3763 78.8939 21.5758 79.252 23.1514L79.5742 24.5479C80.7917 22.3278 82.1882 20.5732 83.7637 19.2842C85.375 17.9593 87.4339 17.2969 89.9404 17.2969C92.0173 17.2969 93.4495 17.834 94.2373 18.9082C95.0251 19.9466 95.4189 21.1283 95.4189 22.4531C95.4189 23.1693 95.2936 24.1898 95.043 25.5146C94.7923 26.8037 94.4342 27.9495 93.9688 28.9521C93.5033 29.9548 92.984 30.4561 92.4111 30.4561C92.0173 30.4561 91.4264 30.3486 90.6387 30.1338C89.5645 29.8473 88.6514 29.7041 87.8994 29.7041C86.1449 29.7041 84.6051 30.2054 83.2803 31.208C81.9912 32.1748 81.0065 33.2669 80.3262 34.4844V65.1533C80.3262 67.1585 78.3926 68.1611 74.5254 68.1611H71.8936ZM124.101 68.8057C115.722 68.8057 109.473 66.5677 105.355 62.0918C101.238 57.5801 99.1787 51.3317 99.1787 43.3467C99.1787 34.359 101.238 27.7705 105.355 23.5811C109.473 19.3916 115.149 17.2969 122.382 17.2969C127.18 17.2969 131.101 18.389 134.145 20.5732C137.224 22.7575 139.462 25.6937 140.858 29.3818C142.291 33.07 143.007 37.2415 143.007 41.8965C143.007 42.4336 142.685 43.1497 142.04 44.0449C141.431 44.9401 140.733 45.7458 139.945 46.4619C139.158 47.1781 138.549 47.5361 138.119 47.5361H113.788C114.11 51.1885 115.185 53.7845 117.011 55.3242C118.873 56.8281 121.451 57.5801 124.745 57.5801C126.535 57.5801 128.147 57.3831 129.579 56.9893C131.047 56.5596 132.605 56.0046 134.252 55.3242C135.255 54.8587 135.935 54.626 136.293 54.626C136.938 54.626 137.636 55.0915 138.388 56.0225C139.175 56.9176 139.838 57.9561 140.375 59.1377C140.948 60.3193 141.234 61.2324 141.234 61.877C141.234 63.3451 140.232 64.5983 138.227 65.6367C136.257 66.6751 133.912 67.4629 131.19 68C128.505 68.5371 126.142 68.8057 124.101 68.8057ZM129.257 38.1367C129.257 35.2005 128.684 32.8551 127.538 31.1006C126.392 29.3102 124.674 28.415 122.382 28.415C117.655 28.415 114.791 31.6556 113.788 38.1367H129.257ZM175.663 68.8057C167.284 68.8057 161.036 66.5677 156.918 62.0918C152.8 57.5801 150.741 51.3317 150.741 43.3467C150.741 34.359 152.8 27.7705 156.918 23.5811C161.036 19.3916 166.711 17.2969 173.944 17.2969C178.743 17.2969 182.663 18.389 185.707 20.5732C188.786 22.7575 191.024 25.6937 192.421 29.3818C193.853 33.07 194.569 37.2415 194.569 41.8965C194.569 42.4336 194.247 43.1497 193.603 44.0449C192.994 44.9401 192.296 45.7458 191.508 46.4619C190.72 47.1781 190.111 47.5361 189.682 47.5361H165.351C165.673 51.1885 166.747 53.7845 168.573 55.3242C170.435 56.8281 173.013 57.5801 176.308 57.5801C178.098 57.5801 179.709 57.3831 181.142 56.9893C182.61 56.5596 184.167 56.0046 185.814 55.3242C186.817 54.8587 187.497 54.626 187.855 54.626C188.5 54.626 189.198 55.0915 189.95 56.0225C190.738 56.9176 191.4 57.9561 191.938 59.1377C192.51 60.3193 192.797 61.2324 192.797 61.877C192.797 63.3451 191.794 64.5983 189.789 65.6367C187.82 66.6751 185.474 67.4629 182.753 68C180.067 68.5371 177.704 68.8057 175.663 68.8057ZM180.819 38.1367C180.819 35.2005 180.246 32.8551 179.101 31.1006C177.955 29.3102 176.236 28.415 173.944 28.415C169.218 28.415 166.353 31.6556 165.351 38.1367H180.819ZM209.931 68.1611C206.135 68.1611 204.237 67.1585 204.237 65.1533V34.8604C204.237 30.277 203.933 26.4635 203.324 23.4199C203.145 22.4531 203.056 21.7728 203.056 21.3789C203.056 20.6628 203.718 20.0898 205.043 19.6602C206.404 19.1947 207.925 18.8545 209.608 18.6396C211.327 18.4248 212.706 18.3174 213.744 18.3174C214.854 18.3174 215.624 18.7292 216.054 19.5527C216.519 20.3763 216.931 21.5758 217.289 23.1514L217.611 24.5479C219.115 22.5426 221.12 20.8418 223.627 19.4453C226.169 18.013 228.891 17.2969 231.791 17.2969C236.589 17.2969 240.134 18.5501 242.426 21.0566C244.717 23.5632 245.863 27.4482 245.863 32.7119V65.1533C245.863 67.1585 243.93 68.1611 240.062 68.1611H237.431C233.635 68.1611 231.737 67.1585 231.737 65.1533V34.8604C231.737 32.9268 231.272 31.4587 230.341 30.4561C229.446 29.4535 227.978 28.9521 225.937 28.9521C224.218 28.9521 222.696 29.5251 221.371 30.6709C220.046 31.8167 219.044 33.0879 218.363 34.4844V65.1533C218.363 67.1585 216.43 68.1611 212.562 68.1611H209.931ZM284.857 68C283.533 68 282.566 67.6956 281.957 67.0869C281.348 66.4782 281.044 65.5114 281.044 64.1865V4.94336C281.044 3.61849 281.348 2.6696 281.957 2.09668C282.566 1.48796 283.533 1.18359 284.857 1.18359H306.234C312.787 1.18359 318.337 2.47266 322.885 5.05078C327.468 7.5931 330.924 11.3529 333.251 16.3301C335.614 21.3073 336.796 27.3766 336.796 34.5381C336.796 41.7354 335.614 47.8226 333.251 52.7998C330.924 57.777 327.468 61.5547 322.885 64.1328C318.337 66.7109 312.787 68 306.234 68H284.857ZM306.234 55.4854C311.319 55.4854 315.168 53.7129 317.782 50.168C320.396 46.5872 321.703 41.3773 321.703 34.5381C321.703 27.7347 320.396 22.5605 317.782 19.0156C315.168 15.4349 311.319 13.6445 306.234 13.6445H295.868V55.4854H306.234ZM358.979 68.8057C354.109 68.8057 350.528 67.5345 348.236 64.9922C345.98 62.4141 344.853 59.0124 344.853 54.7871C344.853 51.6003 345.515 48.7357 346.84 46.1934C348.165 43.6152 350.85 41.4489 354.896 39.6943C358.943 37.9398 364.726 37.0625 372.245 37.0625V33.8936C372.245 32.0316 371.654 30.653 370.473 29.7578C369.291 28.8626 367.411 28.415 364.833 28.415C362.685 28.415 360.84 28.6478 359.301 29.1133C357.761 29.543 356.096 30.1338 354.306 30.8857C353.375 31.3154 352.802 31.5303 352.587 31.5303C351.942 31.5303 351.226 31.0469 350.438 30.0801C349.687 29.1133 349.024 28.0033 348.451 26.75C347.878 25.4967 347.592 24.5479 347.592 23.9033C347.592 22.7933 348.38 21.737 349.955 20.7344C351.566 19.696 353.769 18.8724 356.562 18.2637C359.354 17.6191 362.452 17.2969 365.854 17.2969C373.015 17.2969 378.225 18.7292 381.483 21.5938C384.742 24.4225 386.371 28.3076 386.371 33.249V51.1348C386.371 54.1068 386.443 56.4163 386.586 58.0635C386.765 59.7106 386.998 61.3398 387.284 62.9512C387.463 63.918 387.553 64.5983 387.553 64.9922C387.553 65.7083 386.872 66.2992 385.512 66.7646C384.187 67.2301 382.665 67.5703 380.946 67.7852C379.228 68 377.849 68.1074 376.811 68.1074C375.701 68.1074 374.895 67.6419 374.394 66.7109C373.928 65.7441 373.552 64.4372 373.266 62.79C373.23 62.5752 373.194 62.3604 373.158 62.1455C373.122 61.9307 373.069 61.7158 372.997 61.501C372.639 62.1813 371.869 63.0944 370.688 64.2402C369.542 65.3861 367.966 66.4424 365.961 67.4092C363.956 68.3402 361.628 68.8057 358.979 68.8057ZM363.651 57.5801C365.442 57.5801 367.125 57.0251 368.7 55.915C370.276 54.7692 371.457 53.319 372.245 51.5645V46.3008C363.329 46.3008 358.871 48.6462 358.871 53.3369C358.871 54.5902 359.283 55.6107 360.106 56.3984C360.966 57.1862 362.147 57.5801 363.651 57.5801ZM409.359 87.7119C405.528 87.7119 403.612 87.0316 403.612 85.6709C403.612 85.1338 403.738 84.5609 403.988 83.9521L410.058 68L394.267 21.7012C394.231 21.4863 394.159 21.1999 394.052 20.8418C393.944 20.4479 393.891 20.1615 393.891 19.9824C393.891 19.2663 394.356 18.7471 395.287 18.4248C396.218 18.0667 397.686 17.8877 399.691 17.8877H402.807C404.311 17.8877 405.51 18.0488 406.405 18.3711C407.336 18.6576 407.909 19.1589 408.124 19.875L413.71 37.4922C414.068 38.6022 414.516 40.3926 415.053 42.8633C415.59 45.2982 415.912 46.7484 416.02 47.2139L416.396 49.04H416.825C416.861 48.7894 416.951 48.4134 417.094 47.9121C418.275 42.1829 419.081 38.7096 419.511 37.4922L425.097 19.875C425.347 19.123 425.92 18.6038 426.815 18.3174C427.746 18.0309 428.964 17.8877 430.468 17.8877H432.777C434.747 17.8877 436.179 18.0667 437.074 18.4248C438.005 18.7471 438.471 19.2663 438.471 19.9824C438.471 20.3405 438.381 20.9134 438.202 21.7012L416.288 85.6709C415.823 87.0316 414.05 87.7119 410.971 87.7119H409.359Z"
    fill="#01CB93" />
</svg>