<svg width="77" height="77" viewBox="0 0 232 209" fill="none" xmlns="http://www.w3.org/2000/svg">
  <path
    d="M0.00195312 46.9628V168.568C0.00195312 179.765 4.85544 189.717 12.621 197.493C20.3866 204.957 30.4171 209 42.0655 209H105.484V183.808H42.0655C33.3292 183.808 26.5344 176.966 26.5344 168.568V46.9628C26.5344 38.5655 33.3292 32.0342 42.0655 32.0342H105.484V6.53125H42.0655C30.4171 6.53125 20.3866 10.8854 12.621 18.3497C4.85544 26.125 0.00195312 35.7664 0.00195312 46.9628ZM69.5686 83.6622V132.18C69.5686 137.778 74.7457 142.443 80.5699 142.443H139.135V180.698C139.135 184.119 141.077 186.918 144.312 188.473C145.607 188.784 146.901 188.784 147.548 188.784C149.813 188.784 151.754 188.162 153.372 186.607L229.41 113.519C232.969 110.72 232.646 105.122 229.41 102.012L153.372 29.2351C148.842 24.5699 139.135 27.369 139.135 34.8333V73.3988H80.5699C74.7457 73.3988 69.5686 78.064 69.5686 83.6622Z"
    fill="white" />
</svg>