<svg width="301" height="505" viewBox="0 0 301 505" fill="none" xmlns="http://www.w3.org/2000/svg">
  <rect x="112.359" y="99.478" width="33.515" height="404.877" fill="#6B2707" />
  <path
    d="M101.825 188.614C90.9033 185.688 80.6652 180.639 71.695 173.756C62.7248 166.873 55.1982 158.29 49.5449 148.499C43.8916 138.707 40.2222 127.897 38.7464 116.687C37.2706 105.477 38.0172 94.0866 40.9436 83.1652C43.87 72.2438 48.9188 62.0057 55.8019 53.0355C62.685 44.0654 71.2674 36.5387 81.0593 30.8854C90.8511 25.2321 101.661 21.5627 112.871 20.0869C124.08 18.6111 135.471 19.3577 146.393 22.2841L124.109 105.449L101.825 188.614Z"
    fill="#A0C041" />
  <path
    d="M146.393 22.2841C157.314 25.2105 167.552 30.2594 176.522 37.1424C185.492 44.0255 193.019 52.6079 198.672 62.3998C204.326 72.1917 207.995 83.0011 209.471 94.2111C210.947 105.421 210.2 116.812 207.274 127.733C204.347 138.655 199.298 148.893 192.415 157.863C185.532 166.833 176.95 174.36 167.158 180.013C157.366 185.666 146.557 189.336 135.347 190.812C124.137 192.287 112.746 191.541 101.825 188.614L124.109 105.449L146.393 22.2841Z"
    fill="#649111" />
  <path
    d="M59.7081 341.473C51.8671 339.364 44.5182 335.732 38.081 330.783C31.6439 325.835 26.2444 319.666 22.191 312.631C18.1377 305.596 15.5097 297.831 14.4572 289.78C13.4047 281.729 13.9482 273.549 16.0569 265.708C18.1655 257.867 21.7978 250.518 26.7465 244.081C31.6953 237.644 37.8634 232.244 44.8988 228.191C51.9343 224.138 59.6992 221.51 67.7502 220.457C75.8013 219.405 83.9808 219.948 91.8217 222.057L75.7649 281.765L59.7081 341.473Z"
    fill="#A0C041" />
  <path
    d="M91.822 222.057C99.6629 224.166 107.012 227.798 113.449 232.747C119.886 237.695 125.286 243.864 129.339 250.899C133.392 257.934 136.02 265.699 137.073 273.75C138.125 281.801 137.582 289.981 135.473 297.822C133.365 305.663 129.732 313.012 124.783 319.449C119.835 325.886 113.667 331.286 106.631 335.339C99.5958 339.392 91.8309 342.02 83.7798 343.073C75.7288 344.125 67.5493 343.582 59.7083 341.473L75.7651 281.765L91.822 222.057Z"
    fill="#649111" />
  <rect x="200.577" y="293.634" width="18.8763" height="210.721" fill="#6B2707" />
  <path
    d="M229.346 184.552C238.756 187.073 247.577 191.423 255.306 197.353C263.034 203.284 269.519 210.678 274.39 219.115C279.261 227.551 282.422 236.865 283.694 246.523C284.965 256.181 284.322 265.996 281.801 275.405C279.279 284.815 274.929 293.636 268.999 301.365C263.069 309.093 255.674 315.578 247.238 320.449C238.801 325.32 229.488 328.481 219.829 329.753C210.171 331.024 200.357 330.381 190.947 327.86L210.147 256.206L229.346 184.552Z"
    fill="#649111" />
  <path
    d="M190.947 327.86C181.537 325.338 172.716 320.988 164.988 315.058C157.259 309.128 150.774 301.733 145.904 293.297C141.033 284.86 137.871 275.547 136.6 265.888C135.328 256.23 135.971 246.416 138.493 237.006C141.014 227.596 145.364 218.775 151.294 211.047C157.225 203.318 164.619 196.833 173.056 191.963C181.492 187.092 190.806 183.93 200.464 182.659C210.122 181.387 219.937 182.031 229.346 184.552L210.147 256.206L190.947 327.86Z"
    fill="#577E0F" />
</svg>