<svg width="77" height="77" viewBox="0 0 77 77" fill="none" xmlns="http://www.w3.org/2000/svg">
  <path
    d="M38.5001 6.41669C21.1077 6.41669 6.41675 21.1076 6.41675 38.5C6.41675 48.7314 11.5244 58.0003 19.2501 63.9229V64.1667H19.5773C24.9288 68.1611 31.4835 70.5834 38.5001 70.5834C45.5167 70.5834 52.0713 68.1611 57.4228 64.1667H57.7501V63.9229C65.4757 58.0003 70.5834 48.7346 70.5834 38.5C70.5834 21.1076 55.8925 6.41669 38.5001 6.41669ZM25.9042 60.7241C26.377 58.5854 27.5646 56.6718 29.2712 55.2988C30.9778 53.9258 33.1014 53.1755 35.2917 53.1717H41.7084C43.8986 53.1761 46.0219 53.9266 47.7284 55.2995C49.4349 56.6724 50.6227 58.5857 51.096 60.7241C47.3487 62.8962 43.0431 64.1667 38.5001 64.1667C33.9571 64.1667 29.6515 62.8962 25.9042 60.7241ZM56.4988 56.5982C55.275 53.6846 53.2191 51.1967 50.5882 49.4459C47.9574 47.695 44.8686 46.759 41.7084 46.7551H35.2917C32.1316 46.759 29.0428 47.695 26.4119 49.4459C23.7811 51.1967 21.7251 53.6846 20.5013 56.5982C15.7947 51.9173 12.8334 45.4814 12.8334 38.5C12.8334 24.5855 24.5855 12.8334 38.5001 12.8334C52.4146 12.8334 64.1668 24.5855 64.1668 38.5C64.1668 45.4814 61.2055 51.9173 56.4988 56.5982Z"
    fill="white" />
  <path
    d="M38.5001 19.25C31.1851 19.25 25.6667 24.7683 25.6667 32.0833C25.6667 39.3983 31.1851 44.9167 38.5001 44.9167C45.8151 44.9167 51.3334 39.3983 51.3334 32.0833C51.3334 24.7683 45.8151 19.25 38.5001 19.25ZM38.5001 38.5C34.7207 38.5 32.0834 35.8627 32.0834 32.0833C32.0834 28.3039 34.7207 25.6667 38.5001 25.6667C42.2795 25.6667 44.9167 28.3039 44.9167 32.0833C44.9167 35.8627 42.2795 38.5 38.5001 38.5Z"
    fill="white" />
</svg>