<svg width="193" height="177" viewBox="0 0 193 177" fill="none" xmlns="http://www.w3.org/2000/svg">
  <path d="M81 29H94V177H81V29Z" fill="#6B2707" />
  <path
    d="M77.4558 61.9434C73.4638 60.8737 69.7215 59.0282 66.4426 56.5123C63.1638 53.9963 60.4126 50.8592 58.3462 47.2801C56.2798 43.7009 54.9385 39.7497 54.3991 35.6522C53.8596 31.5547 54.1325 27.391 55.2022 23.399C56.2719 19.4069 58.1174 15.6647 60.6333 12.3858C63.1492 9.107 66.2863 6.35582 69.8655 4.28938C73.4447 2.22295 77.3958 0.881713 81.4934 0.342265C85.5909 -0.197183 89.7545 0.0757178 93.7466 1.14539L85.6012 31.5444L77.4558 61.9434Z"
    fill="#A0C041" />
  <path
    d="M93.7466 1.14537C97.7386 2.21504 101.481 4.06053 104.76 6.57646C108.039 9.0924 110.79 12.2295 112.856 15.8087C114.923 19.3879 116.264 23.339 116.803 27.4365C117.343 31.5341 117.07 35.6977 116 39.6898C114.931 43.6818 113.085 47.4241 110.569 50.7029C108.053 53.9817 104.916 56.7329 101.337 58.7994C97.7577 60.8658 93.8066 62.207 89.709 62.7465C85.6115 63.2859 81.4479 63.013 77.4558 61.9434L85.6012 31.5444L93.7466 1.14537Z"
    fill="#649111" />
  <path
    d="M62.0612 117.817C59.1951 117.046 56.5089 115.719 54.156 113.91C51.803 112.101 49.8294 109.846 48.3477 107.275C46.8661 104.703 45.9055 101.865 45.5208 98.922C45.1361 95.9791 45.3348 92.9893 46.1055 90.1232C46.8763 87.2571 48.204 84.5709 50.0129 82.218C51.8218 79.865 54.0764 77.8914 56.648 76.4097C59.2197 74.9281 62.0579 73.9675 65.0008 73.5828C67.9437 73.1981 70.9335 73.3968 73.7996 74.1675L67.9304 95.9924L62.0612 117.817Z"
    fill="#A0C041" />
  <path
    d="M73.7997 74.1676C76.6657 74.9383 79.3519 76.2661 81.7049 78.0749C84.0578 79.8838 86.0315 82.1385 87.5131 84.7101C88.9947 87.2817 89.9553 90.12 90.34 93.0628C90.7247 96.0057 90.5261 98.9955 89.7553 101.862C88.9845 104.728 87.6568 107.414 85.8479 109.767C84.0391 112.12 81.7844 114.093 79.2128 115.575C76.6412 117.057 73.8029 118.017 70.86 118.402C67.9172 118.787 64.9274 118.588 62.0613 117.817L67.9305 95.9924L73.7997 74.1676Z"
    fill="#649111" />
  <path d="M114 100H120V177H114V100Z" fill="#6B2707" />
  <path
    d="M124.068 60.4584C127.508 61.38 130.732 62.9701 133.557 65.1378C136.382 67.3055 138.753 70.0083 140.533 73.0921C142.313 76.1759 143.469 79.5801 143.934 83.1105C144.399 86.6409 144.163 90.2282 143.242 93.6677C142.32 97.1072 140.73 100.332 138.562 103.157C136.395 105.982 133.692 108.352 130.608 110.132C127.524 111.913 124.12 113.068 120.59 113.533C117.059 113.998 113.472 113.763 110.032 112.841L117.05 86.6498L124.068 60.4584Z"
    fill="#649111" />
  <path
    d="M110.033 112.841C106.593 111.919 103.369 110.329 100.544 108.162C97.7189 105.994 95.3485 103.291 93.5681 100.207C91.7877 97.1236 90.6321 93.7194 90.1673 90.189C89.7025 86.6586 89.9377 83.0713 90.8593 79.6318C91.7809 76.1923 93.3709 72.968 95.5386 70.143C97.7063 67.318 100.409 64.9476 103.493 63.1672C106.577 61.3868 109.981 60.2312 113.511 59.7664C117.042 59.3016 120.629 59.5368 124.069 60.4584L117.051 86.6497L110.033 112.841Z"
    fill="#577E0F" />
  <path
    d="M18.1227 152.99C13.6363 152.99 10.3239 151.807 8.18534 149.44C6.06178 147.074 5 143.395 5 138.404C5 128.801 9.44153 124 18.3246 124C19.5359 124 20.8071 124.121 22.138 124.364C23.4839 124.607 24.6055 124.948 25.5028 125.388C26.4001 125.813 26.8487 126.291 26.8487 126.822C26.8487 127.201 26.6992 127.702 26.4001 128.323C26.101 128.93 25.7496 129.469 25.3458 129.939C24.942 130.409 24.5831 130.645 24.2691 130.645C24.1793 130.645 23.9625 130.569 23.6185 130.417C22.8708 130.114 22.0857 129.863 21.2632 129.666C20.4407 129.454 19.4238 129.347 18.2124 129.347C15.8645 129.347 14.1223 130.106 12.9858 131.623C11.8642 133.125 11.3034 135.4 11.3034 138.45C11.3034 141.499 11.8717 143.797 13.0082 145.344C14.1448 146.892 15.8496 147.665 18.1227 147.665C19.2742 147.665 20.3136 147.567 21.2407 147.37V142.25H17.7189C17.3002 142.25 16.9936 142.09 16.7992 141.772C16.6198 141.453 16.53 140.937 16.53 140.224V138.927C16.53 138.23 16.6198 137.721 16.7992 137.403C16.9936 137.084 17.3002 136.925 17.7189 136.925H25.8169C26.3851 136.925 26.7964 137.054 27.0506 137.312C27.3049 137.555 27.432 137.957 27.432 138.518V149.782C27.432 150.995 26.43 151.837 24.4261 152.308C22.4222 152.763 20.321 152.99 18.1227 152.99Z"
    fill="#01CB93" />
  <path
    d="M34.9018 152.717C33.3166 152.717 32.524 152.292 32.524 151.443V138.609C32.524 136.667 32.3969 135.051 32.1427 133.762C32.0679 133.352 32.0305 133.064 32.0305 132.897C32.0305 132.594 32.3072 132.351 32.8605 132.169C33.4288 131.972 34.0644 131.828 34.7672 131.737C35.485 131.646 36.0608 131.6 36.4945 131.6C36.9581 131.6 37.2796 131.775 37.4591 132.124C37.6535 132.473 37.8254 132.981 37.975 133.648L38.1096 134.24C38.618 133.299 39.2013 132.556 39.8593 132.01C40.5322 131.449 41.3921 131.168 42.439 131.168C43.3063 131.168 43.9045 131.395 44.2335 131.851C44.5625 132.29 44.727 132.791 44.727 133.352C44.727 133.656 44.6747 134.088 44.57 134.649C44.4653 135.196 44.3158 135.681 44.1214 136.106C43.9269 136.531 43.7101 136.743 43.4708 136.743C43.3063 136.743 43.0596 136.697 42.7306 136.606C42.2819 136.485 41.9006 136.424 41.5865 136.424C40.8538 136.424 40.2107 136.637 39.6574 137.062C39.119 137.471 38.7078 137.934 38.4236 138.45V151.443C38.4236 152.292 37.6161 152.717 36.001 152.717H34.9018Z"
    fill="#01CB93" />
  <path
    d="M56.7057 152.99C53.2063 152.99 50.5967 152.042 48.8769 150.146C47.1571 148.234 46.2973 145.587 46.2973 142.204C46.2973 138.396 47.1571 135.605 48.8769 133.83C50.5967 132.055 52.967 131.168 55.9879 131.168C57.9918 131.168 59.6293 131.631 60.9005 132.556C62.1866 133.481 63.1212 134.725 63.7045 136.288C64.3026 137.85 64.6017 139.618 64.6017 141.59C64.6017 141.817 64.4671 142.121 64.198 142.5C63.9437 142.879 63.6521 143.221 63.3231 143.524C62.9941 143.827 62.7399 143.979 62.5604 143.979H52.3987C52.5333 145.526 52.982 146.626 53.7447 147.279C54.5223 147.916 55.599 148.234 56.9749 148.234C57.7226 148.234 58.3956 148.151 58.9937 147.984C59.6069 147.802 60.2574 147.567 60.9453 147.279C61.3641 147.081 61.6482 146.983 61.7977 146.983C62.0669 146.983 62.3585 147.18 62.6726 147.574C63.0016 147.954 63.2783 148.394 63.5026 148.894C63.7418 149.395 63.8615 149.782 63.8615 150.055C63.8615 150.677 63.4428 151.208 62.6053 151.648C61.7828 152.088 60.8033 152.421 59.6667 152.649C58.5451 152.876 57.5581 152.99 56.7057 152.99ZM58.8592 139.997C58.8592 138.753 58.6199 137.759 58.1413 137.016C57.6628 136.257 56.945 135.878 55.9879 135.878C54.0139 135.878 52.8175 137.251 52.3987 139.997H58.8592Z"
    fill="#01CB93" />
  <path
    d="M78.2404 152.99C74.741 152.99 72.1314 152.042 70.4116 150.146C68.6918 148.234 67.8319 145.587 67.8319 142.204C67.8319 138.396 68.6918 135.605 70.4116 133.83C72.1314 132.055 74.5017 131.168 77.5226 131.168C79.5265 131.168 81.164 131.631 82.4352 132.556C83.7213 133.481 84.6559 134.725 85.2391 136.288C85.8373 137.85 86.1364 139.618 86.1364 141.59C86.1364 141.817 86.0018 142.121 85.7327 142.5C85.4784 142.879 85.1868 143.221 84.8578 143.524C84.5288 143.827 84.2746 143.979 84.0951 143.979H73.9334C74.068 145.526 74.5167 146.626 75.2794 147.279C76.057 147.916 77.1337 148.234 78.5096 148.234C79.2573 148.234 79.9303 148.151 80.5284 147.984C81.1416 147.802 81.7921 147.567 82.48 147.279C82.8987 147.081 83.1829 146.983 83.3324 146.983C83.6016 146.983 83.8932 147.18 84.2073 147.574C84.5363 147.954 84.8129 148.394 85.0373 148.894C85.2765 149.395 85.3962 149.782 85.3962 150.055C85.3962 150.677 84.9774 151.208 84.14 151.648C83.3175 152.088 82.3379 152.421 81.2014 152.649C80.0798 152.876 79.0928 152.99 78.2404 152.99ZM80.3938 139.997C80.3938 138.753 80.1546 137.759 79.676 137.016C79.1975 136.257 78.4796 135.878 77.5226 135.878C75.5485 135.878 74.3522 137.251 73.9334 139.997H80.3938Z"
    fill="#01CB93" />
  <path
    d="M92.552 152.717C90.9668 152.717 90.1742 152.292 90.1742 151.443V138.609C90.1742 136.667 90.0471 135.051 89.7928 133.762C89.7181 133.352 89.6807 133.064 89.6807 132.897C89.6807 132.594 89.9573 132.351 90.5107 132.169C91.0789 131.972 91.7145 131.828 92.4174 131.737C93.1352 131.646 93.711 131.6 94.1446 131.6C94.6082 131.6 94.9298 131.775 95.1092 132.124C95.3036 132.473 95.4756 132.981 95.6252 133.648L95.7597 134.24C96.3878 133.39 97.2253 132.67 98.2721 132.078C99.3339 131.471 100.47 131.168 101.682 131.168C103.686 131.168 105.166 131.699 106.123 132.761C107.08 133.823 107.559 135.469 107.559 137.699V151.443C107.559 152.292 106.751 152.717 105.136 152.717H104.037C102.452 152.717 101.659 152.292 101.659 151.443V138.609C101.659 137.79 101.465 137.168 101.076 136.743C100.702 136.318 100.089 136.106 99.2367 136.106C98.5189 136.106 97.8833 136.349 97.33 136.834C96.7767 137.319 96.3579 137.858 96.0738 138.45V151.443C96.0738 152.292 95.2662 152.717 93.6511 152.717H92.552Z"
    fill="#01CB93" />
  <path
    d="M123.845 152.649C123.291 152.649 122.887 152.52 122.633 152.262C122.379 152.004 122.252 151.595 122.252 151.033V125.934C122.252 125.373 122.379 124.971 122.633 124.728C122.887 124.47 123.291 124.341 123.845 124.341H132.772C135.509 124.341 137.827 124.887 139.726 125.98C141.641 127.057 143.084 128.65 144.056 130.758C145.043 132.867 145.536 135.438 145.536 138.472C145.536 141.522 145.043 144.1 144.056 146.209C143.084 148.318 141.641 149.918 139.726 151.01C137.827 152.103 135.509 152.649 132.772 152.649H123.845ZM132.772 147.347C134.896 147.347 136.504 146.596 137.595 145.094C138.687 143.577 139.233 141.37 139.233 138.472C139.233 135.59 138.687 133.398 137.595 131.896C136.504 130.379 134.896 129.621 132.772 129.621H128.443V147.347H132.772Z"
    fill="#01CB93" />
  <path
    d="M154.801 152.99C152.767 152.99 151.271 152.452 150.314 151.375C149.372 150.282 148.901 148.841 148.901 147.051C148.901 145.701 149.178 144.487 149.731 143.41C150.284 142.318 151.406 141.4 153.096 140.657C154.786 139.913 157.201 139.542 160.341 139.542V138.199C160.341 137.41 160.095 136.826 159.601 136.447C159.108 136.068 158.323 135.878 157.246 135.878C156.348 135.878 155.578 135.977 154.935 136.174C154.292 136.356 153.597 136.606 152.849 136.925C152.46 137.107 152.221 137.198 152.131 137.198C151.862 137.198 151.563 136.993 151.234 136.584C150.92 136.174 150.643 135.704 150.404 135.173C150.165 134.642 150.045 134.24 150.045 133.967C150.045 133.497 150.374 133.049 151.032 132.624C151.705 132.184 152.625 131.835 153.791 131.577C154.958 131.304 156.251 131.168 157.672 131.168C160.663 131.168 162.839 131.775 164.2 132.988C165.561 134.187 166.241 135.833 166.241 137.926V145.504C166.241 146.763 166.271 147.741 166.331 148.439C166.405 149.137 166.503 149.827 166.622 150.51C166.697 150.919 166.734 151.208 166.734 151.375C166.734 151.678 166.45 151.928 165.882 152.125C165.329 152.323 164.693 152.467 163.975 152.558C163.258 152.649 162.682 152.694 162.248 152.694C161.785 152.694 161.448 152.497 161.239 152.103C161.044 151.693 160.887 151.139 160.768 150.442C160.753 150.351 160.738 150.26 160.723 150.169C160.708 150.077 160.685 149.986 160.655 149.895C160.506 150.184 160.184 150.571 159.691 151.056C159.212 151.541 158.554 151.989 157.717 152.399C156.879 152.793 155.907 152.99 154.801 152.99ZM156.752 148.234C157.5 148.234 158.203 147.999 158.861 147.529C159.519 147.043 160.012 146.429 160.341 145.686V143.456C156.618 143.456 154.756 144.449 154.756 146.437C154.756 146.968 154.928 147.4 155.272 147.734C155.631 148.067 156.124 148.234 156.752 148.234Z"
    fill="#01CB93" />
  <path
    d="M175.842 161C174.242 161 173.442 160.712 173.442 160.135C173.442 159.908 173.494 159.665 173.599 159.407L176.133 152.649L169.538 133.034C169.524 132.943 169.494 132.821 169.449 132.67C169.404 132.503 169.381 132.382 169.381 132.306C169.381 132.002 169.576 131.782 169.965 131.646C170.354 131.494 170.967 131.418 171.804 131.418H173.105C173.733 131.418 174.234 131.486 174.608 131.623C174.997 131.744 175.236 131.957 175.326 132.26L177.659 139.724C177.808 140.194 177.995 140.953 178.22 141.999C178.444 143.031 178.579 143.645 178.623 143.843L178.78 144.616H178.96C178.975 144.51 179.012 144.351 179.072 144.138C179.566 141.711 179.902 140.24 180.082 139.724L182.414 132.26C182.519 131.942 182.758 131.722 183.132 131.6C183.521 131.479 184.03 131.418 184.658 131.418H185.622C186.445 131.418 187.043 131.494 187.417 131.646C187.806 131.782 188 132.002 188 132.306C188 132.457 187.963 132.7 187.888 133.034L178.736 160.135C178.541 160.712 177.801 161 176.515 161H175.842Z"
    fill="#01CB93" />
  <path fill-rule="evenodd" clip-rule="evenodd"
    d="M4.43757 152.049L4.43198 152.042C1.16259 148.457 0 143.43 0 137.958C0 132.561 1.26233 127.631 4.62712 124.051C8.04524 120.415 12.8471 119 18.1133 119C19.6388 119 21.1945 119.15 22.7735 119.433C24.3922 119.721 25.9533 120.159 27.3512 120.829C28.4381 121.34 31.4132 122.971 31.4132 126.529C31.4132 126.773 31.3985 127.011 31.3722 127.243C32.2257 126.969 33.1077 126.786 33.9985 126.673L34.0047 126.672L34.0109 126.671C34.8157 126.571 35.6138 126.5 36.3323 126.5C37.0134 126.5 37.7459 126.614 38.4576 126.876C39.6937 126.307 41.0105 126.073 42.2929 126.073C43.7156 126.073 45.9841 126.411 47.611 128.292C50.0346 126.743 52.8784 126.073 55.8784 126.073C58.5978 126.073 61.2833 126.695 63.564 128.325C64.603 129.062 65.4972 129.928 66.2446 130.904C66.4667 130.634 66.7021 130.372 66.9516 130.119C69.7679 127.259 73.4814 126.073 77.4713 126.073C80.1907 126.073 82.8762 126.695 85.1569 128.325C85.5122 128.577 85.8506 128.844 86.172 129.125C86.3621 128.902 86.5615 128.704 86.7613 128.531C87.5613 127.841 88.4225 127.492 88.9892 127.305C89.9013 126.997 90.8478 126.795 91.8045 126.673L91.8107 126.672L91.8168 126.671C92.6217 126.571 93.4198 126.5 94.1383 126.5C95.0063 126.5 95.9578 126.686 96.8431 127.125C98.3657 126.429 99.9979 126.073 101.696 126.073C104.474 126.073 107.476 126.806 109.657 129.188C111.759 131.483 112.342 134.504 112.342 137.262V150.825C112.342 151.83 112.087 152.927 111.435 153.94C110.796 154.932 109.949 155.576 109.169 155.98C107.75 156.715 106.226 156.827 105.16 156.827H104.058C102.999 156.827 101.472 156.713 100.049 155.963C99.659 155.757 99.2548 155.491 98.8698 155.154C98.4713 155.502 98.0532 155.773 97.6531 155.98C96.2336 156.715 94.7094 156.827 93.6434 156.827H92.5413C91.4831 156.827 89.956 156.713 88.533 155.963C88.0238 155.694 87.4907 155.324 87.0078 154.824C86.7638 154.982 86.5278 155.117 86.3098 155.231C84.9967 155.92 83.5638 156.377 82.0848 156.669C80.7527 156.934 79.4418 157.096 78.191 157.096C74.0675 157.096 70.1393 156.033 67.2471 153.175C66.4695 154.167 65.4822 154.833 64.7169 155.231C63.4038 155.92 61.9709 156.377 60.4919 156.669C59.1598 156.934 57.8489 157.096 56.5981 157.096C52.2794 157.096 48.1749 155.93 45.2506 152.757L45.2442 152.75L45.2378 152.743C44.3198 151.739 43.5875 150.636 43.0194 149.457V150.825C43.0194 151.83 42.7652 152.927 42.1127 153.94C41.4741 154.932 40.6264 155.576 39.8471 155.98C38.4276 156.715 36.9034 156.827 35.8375 156.827H34.7353C33.6771 156.827 32.15 156.713 30.7271 155.963C30.1759 155.672 29.5969 155.262 29.0837 154.698C27.8745 155.56 26.5038 156.023 25.3025 156.3L25.2861 156.304L25.2696 156.308C22.8964 156.838 20.44 157.096 17.9109 157.096C12.6499 157.096 7.81156 155.723 4.44318 152.055L4.43757 152.049ZM32.6885 131.806C32.1337 131.985 31.8563 132.225 31.8563 132.524C31.8563 132.689 31.8938 132.973 31.9688 133.378C32.2237 134.65 32.3511 136.244 32.3511 138.16V150.825C32.3511 151.663 33.1459 152.082 34.7353 152.082H35.8375C37.4569 152.082 38.2667 151.663 38.2667 150.825V138.003C38.5516 137.494 38.964 137.038 39.5038 136.633C40.0586 136.214 40.7034 136.005 41.4381 136.005C41.5995 136.005 41.7787 136.02 41.9755 136.052C42.0101 136.057 42.0452 136.063 42.0809 136.07C42.1023 136.074 42.124 136.078 42.1459 136.082C42.2844 136.109 42.4308 136.143 42.5853 136.184C42.9151 136.274 43.1626 136.319 43.3275 136.319C43.5674 136.319 43.7849 136.109 43.9798 135.69C44.1747 135.271 44.3247 134.792 44.4296 134.253C44.5346 133.699 44.5871 133.273 44.5871 132.973C44.5871 132.45 44.44 131.981 44.1459 131.565C44.1285 131.54 44.1107 131.516 44.0923 131.491C43.7624 131.042 43.1626 130.818 42.2929 130.818C42.2139 130.818 42.136 130.819 42.0591 130.822C41.3056 130.853 40.6541 131.035 40.1046 131.367C39.9652 131.451 39.8324 131.545 39.7062 131.649C39.226 132.041 38.7855 132.536 38.3848 133.134C38.3843 133.135 38.3837 133.136 38.3832 133.137C38.2339 133.36 38.0901 133.597 37.9518 133.849L37.8168 133.265C37.7285 132.877 37.6325 132.544 37.5286 132.265C37.456 132.071 37.3797 131.902 37.2995 131.761C37.1196 131.417 36.7972 131.244 36.3323 131.244C35.8975 131.244 35.3202 131.289 34.6004 131.379C34.3299 131.414 34.0694 131.456 33.8188 131.506C33.4164 131.586 33.0397 131.686 32.6885 131.806ZM49.3395 132.9C49.3104 132.924 49.2815 132.949 49.2528 132.973C49.0788 133.123 48.9106 133.28 48.7482 133.445C48.3382 133.861 47.977 134.334 47.6645 134.864C47.6615 134.869 47.6585 134.874 47.6555 134.879C47.2904 135.502 46.9922 136.202 46.7609 136.979C46.4767 137.935 46.2936 139.009 46.2115 140.2C46.1782 140.683 46.1616 141.186 46.1616 141.708C46.1616 145.046 47.0238 147.658 48.7482 149.545C50.2494 151.174 52.4268 152.094 55.2803 152.304C55.7046 152.336 56.1439 152.351 56.5981 152.351C56.6867 152.351 56.7766 152.35 56.8681 152.348C57.6593 152.327 58.559 152.216 59.5672 152.015C59.7582 151.977 59.9447 151.936 60.1269 151.893C60.1517 151.887 60.1764 151.881 60.201 151.875C60.9933 151.681 61.7007 151.43 62.3234 151.124C62.3878 151.092 62.4512 151.06 62.5137 151.027C62.5469 151.009 62.5795 150.992 62.6115 150.975C62.6712 150.942 62.7287 150.909 62.7838 150.875C63.4435 150.472 63.7733 149.999 63.7733 149.455C63.7733 149.185 63.6533 148.804 63.4134 148.31C63.3859 148.249 63.3577 148.19 63.3287 148.131C63.12 147.711 62.8708 147.336 62.5812 147.007C62.5434 146.961 62.5059 146.917 62.4687 146.876C62.1964 146.574 61.9415 146.424 61.704 146.424C61.554 146.424 61.2691 146.521 60.8492 146.715C60.6893 146.781 60.5314 146.844 60.3755 146.905C60.3648 146.909 60.354 146.913 60.3432 146.917C60.2409 146.957 60.1394 146.995 60.0388 147.032C59.6432 147.177 59.261 147.304 58.8924 147.411C58.8188 147.432 58.7442 147.451 58.6683 147.468C58.6645 147.469 58.6607 147.47 58.6569 147.471C58.1175 147.596 57.5212 147.658 56.8681 147.658C56.7768 147.658 56.6868 147.657 56.5981 147.654C56.3064 147.645 56.0289 147.621 55.7655 147.582C54.8996 147.455 54.1875 147.166 53.6291 146.715C53.0083 146.193 52.595 145.379 52.3892 144.275C52.3415 144.019 52.305 143.747 52.2796 143.46H62.4687C62.6134 143.46 62.8066 143.363 63.0483 143.169C63.1071 143.122 63.1689 143.069 63.2335 143.01C63.3288 142.924 63.421 142.834 63.5101 142.741C63.6786 142.566 63.8358 142.379 63.9819 142.182C64.0258 142.122 64.0687 142.062 64.1107 142C64.1849 141.897 64.249 141.8 64.3028 141.708C64.4446 141.467 64.5155 141.265 64.5155 141.102C64.5155 139.228 64.2374 137.541 63.6812 136.042C63.6598 135.984 63.638 135.927 63.6158 135.87C63.031 134.328 62.0938 133.101 60.8043 132.187C60.0188 131.625 59.0938 131.235 58.0294 131.019C57.3665 130.885 56.6495 130.818 55.8784 130.818C55.1704 130.818 54.4981 130.866 53.8614 130.961C52.0729 131.23 50.5656 131.876 49.3395 132.9ZM52.4392 138.715C52.3772 138.971 52.324 139.243 52.2796 139.53H58.7574C58.7574 139.245 58.7445 138.973 58.7186 138.715C58.6331 137.86 58.4061 137.152 58.0377 136.589C57.7428 136.128 57.3572 135.81 56.881 135.633C56.5824 135.521 56.2482 135.466 55.8784 135.466C55.4931 135.466 55.1373 135.517 54.8111 135.62C53.639 135.989 52.8483 137.02 52.4392 138.715ZM68.6648 136.08C68.1137 137.463 67.8129 139.137 67.7622 141.102C67.757 141.301 67.7545 141.503 67.7545 141.708C67.7545 142.76 67.8401 143.74 68.0114 144.648C68.0145 144.664 68.0176 144.681 68.0208 144.697C68.0208 144.698 68.0209 144.698 68.0209 144.698C68.3968 146.648 69.1702 148.264 70.3411 149.545C71.8423 151.174 74.0196 152.094 76.8731 152.304C77.2975 152.336 77.7368 152.351 78.191 152.351C78.2796 152.351 78.3695 152.35 78.4609 152.348C79.2522 152.327 80.1519 152.216 81.16 152.015C81.351 151.977 81.5376 151.936 81.7198 151.893C81.7446 151.887 81.7693 151.881 81.7939 151.875C82.5861 151.681 83.2936 151.43 83.9163 151.124C83.9806 151.092 84.0441 151.06 84.1066 151.027C84.1398 151.009 84.1724 150.992 84.2044 150.975C84.2641 150.942 84.3216 150.909 84.3767 150.875C85.0363 150.472 85.3662 149.999 85.3662 149.455C85.3662 149.185 85.2462 148.804 85.0063 148.31C84.9788 148.249 84.9506 148.19 84.9216 148.131C84.7128 147.711 84.4637 147.336 84.1741 147.007C84.1362 146.961 84.0988 146.917 84.0616 146.876C83.7893 146.574 83.5343 146.424 83.2968 146.424C83.1469 146.424 82.862 146.521 82.4421 146.715C82.2822 146.781 82.1243 146.844 81.9684 146.905C81.9576 146.909 81.9469 146.913 81.9361 146.917C81.8338 146.957 81.7323 146.995 81.6316 147.032C81.236 147.177 80.8539 147.304 80.4853 147.411C80.4117 147.432 80.337 147.451 80.2612 147.468C80.2574 147.469 80.2536 147.47 80.2498 147.471C79.7104 147.596 79.1141 147.658 78.4609 147.658C78.3697 147.658 78.2797 147.657 78.191 147.654C77.8993 147.645 77.6218 147.621 77.3584 147.582C76.4925 147.455 75.7804 147.166 75.222 146.715C74.6012 146.193 74.1879 145.379 73.9821 144.275C73.9344 144.019 73.8978 143.747 73.8725 143.46H84.0616C84.2415 143.46 84.4965 143.31 84.8263 143.01C84.9217 142.924 85.0139 142.834 85.103 142.741C85.2078 142.632 85.3083 142.519 85.4044 142.401C85.4628 142.329 85.5196 142.256 85.5748 142.182C85.6187 142.122 85.6616 142.062 85.7036 142C85.9735 141.626 86.1084 141.326 86.1084 141.102C86.1084 140.064 86.0231 139.083 85.8524 138.16C85.7291 137.493 85.5611 136.856 85.3485 136.248C85.3039 136.121 85.2573 135.995 85.2087 135.87C84.6239 134.328 83.6867 133.101 82.3971 132.187C81.6117 131.625 80.6867 131.235 79.6223 131.019C78.9594 130.885 78.2424 130.818 77.4713 130.818C76.7633 130.818 76.091 130.866 75.4543 130.961C73.3669 131.275 71.6625 132.103 70.3411 133.445C69.6397 134.157 69.0809 135.036 68.6648 136.08ZM74.0321 138.715C73.9701 138.971 73.9169 139.243 73.8725 139.53H80.3503C80.3503 139.245 80.3374 138.973 80.3115 138.715C80.226 137.86 79.999 137.152 79.6306 136.589C79.3356 136.128 78.9501 135.81 78.4739 135.633C78.1753 135.521 77.8411 135.466 77.4713 135.466C77.086 135.466 76.7302 135.517 76.404 135.62C75.2319 135.989 74.4412 137.02 74.0321 138.715ZM90.044 135.32C90.1194 136.172 90.1571 137.118 90.1571 138.16V150.825C90.1571 151.663 90.9518 152.082 92.5413 152.082H93.6434C95.2629 152.082 96.0726 151.663 96.0726 150.825V138.003C96.3575 137.419 96.7774 136.888 97.3322 136.409C97.6551 136.13 98.0059 135.932 98.3846 135.816C98.6567 135.732 98.9432 135.69 99.2441 135.69C99.7479 135.69 100.168 135.763 100.505 135.909C100.74 136.01 100.935 136.147 101.088 136.319C101.478 136.738 101.673 137.352 101.673 138.16V150.825C101.673 151.663 102.468 152.082 104.058 152.082H105.16C106.779 152.082 107.589 151.663 107.589 150.825V137.262C107.589 135.062 107.109 133.437 106.149 132.39C105.19 131.342 103.705 130.818 101.696 130.818C101.164 130.818 100.647 130.875 100.144 130.99C100.075 131.005 100.007 131.022 99.9382 131.04C99.7037 131.101 99.4723 131.175 99.2441 131.262C98.9151 131.387 98.5927 131.538 98.2769 131.716C97.5652 132.112 96.95 132.566 96.4313 133.079C96.43 133.08 96.4288 133.081 96.4276 133.083C96.1827 133.325 95.9595 133.581 95.7577 133.849L95.6228 133.265C95.5123 132.78 95.3895 132.38 95.2545 132.065C95.2064 131.953 95.1567 131.851 95.1055 131.761C94.9255 131.417 94.6031 131.244 94.1383 131.244C93.7125 131.244 93.1502 131.287 92.4514 131.374C92.4364 131.375 92.4214 131.377 92.4063 131.379C91.7016 131.469 91.0643 131.611 90.4945 131.806C89.9397 131.985 89.6622 132.225 89.6622 132.524C89.6622 132.689 89.6997 132.973 89.7747 133.378C89.891 133.958 89.9808 134.606 90.044 135.32ZM23.4216 130.077C23.7665 130.226 23.9839 130.301 24.0739 130.301C24.3888 130.301 24.7486 130.069 25.1535 129.605C25.5584 129.141 25.9108 128.61 26.2107 128.011C26.5106 127.397 26.6605 126.903 26.6605 126.529C26.6605 126.005 26.2107 125.533 25.3109 125.114C24.4112 124.68 23.2866 124.343 21.9371 124.104C20.6025 123.864 19.3279 123.745 18.1133 123.745C9.20625 123.745 4.75272 128.482 4.75272 137.958C4.75272 142.883 5.81737 146.513 7.94667 148.849C10.091 151.184 13.4124 152.351 17.9109 152.351C20.1152 152.351 22.222 152.127 24.2313 151.678C26.2406 151.214 27.2453 150.383 27.2453 149.185V138.07C27.2453 137.517 27.1179 137.12 26.8629 136.88C26.608 136.626 26.1957 136.499 25.6258 136.499H17.506C17.0862 136.499 16.7788 136.656 16.5838 136.97C16.4039 137.285 16.3139 137.786 16.3139 138.475V139.755C16.3139 140.458 16.4039 140.967 16.5838 141.281C16.7788 141.596 17.0862 141.753 17.506 141.753H21.0374V146.805C20.1077 147 19.0655 147.097 17.9109 147.097C15.6316 147.097 13.9222 146.334 12.7826 144.807C11.643 143.28 11.0731 141.012 11.0731 138.003C11.0731 134.994 11.6355 132.749 12.7601 131.267C13.8997 129.77 15.6466 129.021 18.0009 129.021C19.2155 129.021 20.2351 129.126 21.0598 129.336C21.8846 129.53 22.6718 129.777 23.4216 130.077ZM133.881 134.352L133.874 134.343L133.868 134.334C133.773 134.204 133.716 134.175 133.672 134.154C133.627 134.134 133.509 134.087 133.282 134.059V142.016C133.517 141.987 133.641 141.939 133.689 141.917C133.735 141.896 133.788 141.868 133.874 141.753C134.133 141.393 134.596 140.37 134.596 138.026C134.596 135.677 134.125 134.682 133.881 134.352ZM137.706 144.56C136.683 145.945 135.209 146.683 133.282 146.773C133.147 146.78 133.01 146.783 132.871 146.783H128.529V129.291H132.871C133.01 129.291 133.147 129.294 133.282 129.3C135.209 129.392 136.683 130.137 137.706 131.536C138.801 133.018 139.348 135.181 139.348 138.026C139.348 140.885 138.801 143.063 137.706 144.56ZM123.918 156.759C122.768 156.759 120.869 156.511 119.343 154.988C117.817 153.464 117.569 151.569 117.569 150.42V125.653C117.569 124.549 117.798 122.595 119.394 121.058C120.911 119.579 122.78 119.337 123.918 119.337H132.871C136.223 119.337 139.394 119.995 142.168 121.56C144.982 123.123 147.093 125.445 148.467 128.357C148.519 128.322 148.568 128.29 148.616 128.26C149.931 127.416 151.44 126.913 152.906 126.592C154.475 126.233 156.128 126.073 157.837 126.073C160.815 126.073 163.891 126.562 166.377 128.184C167.114 127.444 167.931 127.048 168.534 126.832C169.758 126.38 171.072 126.32 172.008 126.32H173.312C174.184 126.32 175.263 126.402 176.334 126.769C177.238 127.067 178.29 127.647 179.094 128.635C179.876 127.664 180.913 127.046 181.918 126.725L181.943 126.717L181.969 126.71C182.987 126.397 184.02 126.32 184.896 126.32H185.863C186.768 126.32 188.086 126.376 189.319 126.842C189.973 127.08 190.868 127.526 191.64 128.386C192.542 129.39 193 130.657 193 131.94C193 132.666 192.85 133.356 192.769 133.711L192.713 133.957L183.455 160.938C182.766 162.949 181.194 163.998 179.958 164.472C178.81 164.911 177.641 165 176.731 165H176.056C175.103 165 173.843 164.932 172.661 164.513C172.046 164.295 171.134 163.873 170.335 163.022C169.434 162.064 168.897 160.788 168.897 159.402C168.897 158.469 169.107 157.639 169.382 156.951L170.476 154.082C170.265 154.338 170.044 154.561 169.827 154.749C169.038 155.433 168.188 155.788 167.628 155.98C166.695 156.306 165.723 156.511 164.747 156.633C163.942 156.733 163.144 156.804 162.426 156.804C161.593 156.804 160.635 156.64 159.694 156.157C158.171 156.826 156.557 157.096 154.958 157.096C152.156 157.096 149.119 156.358 146.93 153.934L146.906 153.908L146.883 153.882C146.35 153.273 145.91 152.625 145.553 151.948C144.574 152.95 143.45 153.815 142.183 154.528C139.405 156.099 136.229 156.759 132.871 156.759H123.918ZM139.843 150.398C141.763 149.32 143.21 147.741 144.184 145.66C144.237 145.549 144.289 145.436 144.339 145.322C144.892 144.064 145.272 142.645 145.48 141.065C145.606 140.111 145.669 139.098 145.669 138.026C145.669 135.032 145.174 132.494 144.184 130.414C143.21 128.333 141.763 126.761 139.843 125.698C137.939 124.62 135.615 124.081 132.871 124.081H123.918C123.364 124.081 122.959 124.209 122.704 124.463C122.449 124.703 122.321 125.099 122.321 125.653V150.42C122.321 150.974 122.449 151.378 122.704 151.633C122.959 151.887 123.364 152.015 123.918 152.015H132.871C135.615 152.015 137.939 151.476 139.843 150.398ZM149.875 142.898C149.337 143.928 149.06 145.084 149.044 146.366C149.043 146.408 149.043 146.449 149.043 146.491C149.043 148.257 149.515 149.679 150.46 150.757C151.419 151.82 152.919 152.351 154.958 152.351C155.23 152.351 155.493 152.34 155.748 152.317C156.048 152.289 156.337 152.246 156.615 152.186C156.716 152.164 156.816 152.14 156.915 152.114C157.255 152.024 157.578 151.909 157.882 151.768C158.722 151.363 159.382 150.922 159.862 150.443C160.05 150.261 160.213 150.093 160.351 149.939C160.352 149.937 160.354 149.936 160.355 149.934C160.458 149.819 160.548 149.712 160.623 149.613C160.676 149.543 160.721 149.477 160.76 149.415C160.769 149.401 160.778 149.387 160.786 149.374C160.802 149.348 160.816 149.322 160.829 149.298C160.853 149.369 160.872 149.44 160.886 149.511C160.89 149.53 160.893 149.548 160.896 149.567L160.941 149.837C161.032 150.36 161.145 150.802 161.28 151.161C161.322 151.274 161.367 151.379 161.414 151.476C161.624 151.865 161.961 152.06 162.426 152.06C162.861 152.06 163.438 152.015 164.158 151.925C164.401 151.894 164.636 151.858 164.861 151.816C165.3 151.733 165.703 151.627 166.07 151.498C166.639 151.304 166.924 151.057 166.924 150.757C166.924 150.593 166.887 150.308 166.812 149.904C166.692 149.23 166.594 148.549 166.519 147.861C166.459 147.172 166.429 146.206 166.429 144.964V137.487C166.429 136.167 166.151 135.028 165.595 134.069C165.502 133.909 165.401 133.754 165.292 133.604C165.268 133.57 165.244 133.538 165.219 133.505C165.198 133.477 165.177 133.449 165.155 133.421C165.096 133.347 165.036 133.274 164.973 133.202C164.793 132.995 164.596 132.799 164.383 132.614C163.255 131.625 161.57 131.044 159.327 130.872C158.855 130.836 158.359 130.818 157.837 130.818C157.694 130.818 157.551 130.819 157.41 130.822C156.152 130.846 154.998 130.98 153.946 131.222C153.908 131.23 153.87 131.239 153.832 131.247C153.799 131.255 153.767 131.262 153.734 131.27C152.8 131.487 152.033 131.765 151.431 132.104C151.354 132.147 151.28 132.191 151.208 132.236C151.199 132.243 151.189 132.249 151.179 132.255C151.143 132.278 151.107 132.302 151.072 132.325C150.484 132.723 150.19 133.142 150.19 133.58C150.19 133.849 150.31 134.246 150.55 134.77C150.74 135.185 150.953 135.562 151.19 135.902C151.253 135.991 151.316 136.078 151.382 136.162C151.461 136.259 151.538 136.344 151.614 136.418C151.854 136.651 152.076 136.768 152.282 136.768C152.372 136.768 152.612 136.678 153.001 136.499C153.241 136.398 153.476 136.304 153.705 136.217C153.714 136.214 153.723 136.211 153.731 136.208C153.773 136.192 153.815 136.176 153.857 136.161C154.235 136.021 154.598 135.901 154.946 135.8C154.964 135.794 154.982 135.789 155.001 135.784C155.032 135.775 155.062 135.766 155.093 135.758C155.738 135.563 156.51 135.466 157.41 135.466C157.558 135.466 157.7 135.469 157.837 135.476C158.164 135.493 158.459 135.53 158.723 135.586C159.157 135.679 159.506 135.826 159.772 136.027C160.266 136.401 160.514 136.978 160.514 137.756V139.081C159.386 139.081 158.351 139.128 157.41 139.222C157.387 139.224 157.364 139.227 157.342 139.229C157.022 139.262 156.712 139.3 156.414 139.344C156.339 139.355 156.264 139.367 156.19 139.379C156.163 139.383 156.136 139.387 156.109 139.392C155.53 139.487 154.994 139.604 154.501 139.742C154.461 139.754 154.42 139.765 154.381 139.777C153.973 139.896 153.596 140.031 153.249 140.181C153.035 140.274 152.829 140.369 152.633 140.468C152.513 140.528 152.395 140.59 152.282 140.652C151.858 140.885 151.482 141.133 151.154 141.395C150.694 141.762 150.328 142.158 150.057 142.583C149.991 142.686 149.93 142.791 149.875 142.898ZM155.372 144.442C155.066 144.843 154.913 145.324 154.913 145.885C154.913 146.409 155.086 146.835 155.431 147.164C155.563 147.286 155.714 147.385 155.884 147.462C156.174 147.593 156.518 147.658 156.915 147.658C156.967 147.658 157.018 147.657 157.069 147.655C157.096 147.654 157.123 147.653 157.15 147.651C157.297 147.641 157.443 147.622 157.587 147.594C158.089 147.496 158.57 147.285 159.029 146.962C159.223 146.822 159.402 146.67 159.567 146.508C159.965 146.117 160.281 145.662 160.514 145.144V142.943C159.876 142.943 159.292 142.972 158.763 143.029C158.453 143.063 158.162 143.106 157.889 143.159C157.533 143.229 157.208 143.315 156.915 143.419C156.869 143.435 156.823 143.452 156.778 143.469C156.722 143.491 156.666 143.514 156.612 143.537C156.592 143.545 156.572 143.554 156.553 143.563C156.246 143.699 155.982 143.859 155.761 144.041C155.612 144.164 155.482 144.298 155.372 144.442ZM169.67 131.624C169.609 131.717 169.578 131.822 169.578 131.94C169.578 132.015 169.601 132.135 169.646 132.3C169.691 132.449 169.721 132.569 169.736 132.659L176.349 152.015L173.807 158.684C173.702 158.938 173.65 159.178 173.65 159.402C173.65 159.971 174.452 160.255 176.056 160.255H176.731C177.024 160.255 177.288 160.241 177.524 160.211C177.6 160.202 177.673 160.191 177.743 160.179C177.976 160.137 178.176 160.08 178.345 160.005C178.363 159.997 178.381 159.989 178.398 159.981C178.687 159.841 178.874 159.648 178.958 159.402L188.135 132.659C188.21 132.33 188.247 132.09 188.247 131.94C188.247 131.641 188.052 131.424 187.662 131.289C187.288 131.14 186.688 131.065 185.863 131.065H184.896C184.449 131.065 184.063 131.095 183.737 131.155C183.697 131.163 183.657 131.17 183.619 131.179C183.53 131.198 183.446 131.22 183.366 131.244C182.992 131.364 182.752 131.581 182.647 131.896L180.307 139.261C180.199 139.567 180.034 140.215 179.811 141.204C179.811 141.206 179.811 141.207 179.81 141.209C179.685 141.765 179.542 142.429 179.381 143.201C179.38 143.206 179.38 143.211 179.379 143.215C179.351 143.346 179.324 143.48 179.295 143.617C179.242 143.802 179.207 143.947 179.189 144.05C179.187 144.063 179.184 144.076 179.183 144.088H179.003L178.845 143.325C178.8 143.13 178.665 142.524 178.441 141.506C178.216 140.473 178.028 139.725 177.878 139.261L175.539 131.896C175.449 131.596 175.209 131.387 174.819 131.267C174.655 131.208 174.467 131.162 174.254 131.129C174.253 131.128 174.251 131.128 174.25 131.128C174.184 131.118 174.117 131.109 174.047 131.101C173.947 131.09 173.842 131.082 173.733 131.076C173.6 131.068 173.459 131.065 173.312 131.065H172.008C171.168 131.065 170.553 131.14 170.163 131.289C169.927 131.371 169.763 131.483 169.67 131.624Z"
    fill="white" />
</svg>